<svg xmlns="http://www.w3.org/2000/svg" viewBox="0 0 609 602" style="background-color:#f6f4ed"> <defs> <style> .shadow{stroke-linecap:round;stroke-linejoin:round;fill:#565656;stroke:#565656} .cls-1{fill:#533549;}.cls-2{fill:#F9ED4E;}.cls-3{fill:#F6B042;}.cls-5{fill:none;stroke:#565656;stroke-miterlimit:10;stroke-width:2px;} .contour{fill:none;stroke:#565656;stroke-miterlimit:10;stroke-width:2px;height:279,width:382, x:113, y:86}.place{font-size:36px;font-family:serif;fill:#565656}</style></defs><pattern id="backDots" width="64" height="64" patternUnits="userSpaceOnUse"><line fill="transparent" stroke="#565656" stroke-width="2" opacity=".6" x1="14.76" y1="24.94" x2="20.5" y2="19.5" /></pattern><filter id="back"><feTurbulence type="fractalNoise" baseFrequency="0.1" numOctaves="1" seed="42"/> <feDisplacementMap in="SourceGraphic" xChannelSelector="B" scale="200"/></filter><g filter="url(#back)"><rect x="-50%" y="-50%" width="200%" height="200%" fill="url(#backDots)" /></g><filter id="displacementFilter"><feTurbulence id="turbulenceMap" type="turbulence" baseFrequency="0.05" numOctaves="2" result= "turbulence"><animate attributeName="baseFrequency" values="0.01;0.001;0.01" dur="4s" repeatCount="indefinite"/></feTurbulence><feDisplacementMap in2="turbulence" in="SourceGraphic" scale="9" xChannelSelector="R" yChannelSelector="G" /></filter> <g id="layer_2" style="filter: url(#displacementFilter)"><rect class="cls-1" x="110" y="90" height="20" width="20" style="filter: url(#displacementFilter)" /><rect class="cls-1" x="130" y="90" height="20" width="20" style="filter: url(#displacementFilter)" /><rect class="cls-1" x="150" y="90" height="20" width="20" style="filter: url(#displacementFilter)" /><rect class="cls-1" x="170" y="90" height="20" width="20" style="filter: url(#displacementFilter)" /><rect class="cls-1" x="190" y="90" height="20" width="20" style="filter: url(#displacementFilter)" /><rect class="cls-1" x="210" y="90" height="20" width="20" style="filter: url(#displacementFilter)" /><rect class="cls-1" x="230" y="90" height="20" width="20" style="filter: url(#displacementFilter)" /><rect class="cls-1" x="250" y="90" height="20" width="20" style="filter: url(#displacementFilter)" /><rect class="cls-1" x="270" y="90" height="20" width="20" style="filter: url(#displacementFilter)" /><rect class="cls-1" x="290" y="90" height="20" width="20" style="filter: url(#displacementFilter)" /><rect class="cls-1" x="310" y="90" height="20" width="20" style="filter: url(#displacementFilter)" /><rect class="cls-1" x="330" y="90" height="20" width="20" style="filter: url(#displacementFilter)" /><rect class="cls-1" x="350" y="90" height="20" width="20" style="filter: url(#displacementFilter)" /><rect class="cls-1" x="370" y="90" height="20" width="20" style="filter: url(#displacementFilter)" /><rect class="cls-1" x="390" y="90" height="20" width="20" style="filter: url(#displacementFilter)" /><rect class="cls-1" x="410" y="90" height="20" width="20" style="filter: url(#displacementFilter)" /><rect class="cls-1" x="430" y="90" height="20" width="20" style="filter: url(#displacementFilter)" /><rect class="cls-1" x="450" y="90" height="20" width="20" style="filter: url(#displacementFilter)" /><rect class="cls-1" x="470" y="90" height="20" width="20" style="filter: url(#displacementFilter)" /><rect class="cls-1" x="490" y="90" height="20" width="20" style="filter: url(#displacementFilter)" /><rect class="cls-1" x="110" y="110" height="20" width="20" style="filter: url(#displacementFilter)" /><rect class="cls-1" x="130" y="110" height="20" width="20" style="filter: url(#displacementFilter)" /><rect class="cls-1" x="150" y="110" height="20" width="20" style="filter: url(#displacementFilter)" /><rect class="cls-1" x="170" y="110" height="20" width="20" style="filter: url(#displacementFilter)" /><rect class="cls-1" x="190" y="110" height="20" width="20" style="filter: url(#displacementFilter)" /><rect class="cls-1" x="210" y="110" height="20" width="20" style="filter: url(#displacementFilter)" /><rect class="cls-1" x="230" y="110" height="20" width="20" style="filter: url(#displacementFilter)" /><rect class="cls-1" x="250" y="110" height="20" width="20" style="filter: url(#displacementFilter)" /><rect class="cls-1" x="270" y="110" height="20" width="20" style="filter: url(#displacementFilter)" /><rect class="cls-1" x="290" y="110" height="20" width="20" style="filter: url(#displacementFilter)" /><rect class="cls-1" x="310" y="110" height="20" width="20" style="filter: url(#displacementFilter)" /><rect class="cls-1" x="330" y="110" height="20" width="20" style="filter: url(#displacementFilter)" /><rect class="cls-1" x="350" y="110" height="20" width="20" style="filter: url(#displacementFilter)" /><rect class="cls-1" x="370" y="110" height="20" width="20" style="filter: url(#displacementFilter)" /><rect class="cls-1" x="390" y="110" height="20" width="20" style="filter: url(#displacementFilter)" /><rect class="cls-1" x="410" y="110" height="20" width="20" style="filter: url(#displacementFilter)" /><rect class="cls-1" x="430" y="110" height="20" width="20" style="filter: url(#displacementFilter)" /><rect class="cls-1" x="450" y="110" height="20" width="20" style="filter: url(#displacementFilter)" /><rect class="cls-1" x="470" y="110" height="20" width="20" style="filter: url(#displacementFilter)" /><rect class="cls-1" x="490" y="110" height="20" width="20" style="filter: url(#displacementFilter)" /><rect class="cls-1" x="110" y="130" height="20" width="20" style="filter: url(#displacementFilter)" /><rect class="cls-1" x="130" y="130" height="20" width="20" style="filter: url(#displacementFilter)" /><rect class="cls-1" x="150" y="130" height="20" width="20" style="filter: url(#displacementFilter)" /><rect class="cls-1" x="170" y="130" height="20" width="20" style="filter: url(#displacementFilter)" /><rect class="cls-1" x="190" y="130" height="20" width="20" style="filter: url(#displacementFilter)" /><rect class="cls-1" x="210" y="130" height="20" width="20" style="filter: url(#displacementFilter)" /><rect class="cls-1" x="230" y="130" height="20" width="20" style="filter: url(#displacementFilter)" /><rect class="cls-1" x="250" y="130" height="20" width="20" style="filter: url(#displacementFilter)" /><rect class="cls-1" x="270" y="130" height="20" width="20" style="filter: url(#displacementFilter)" /><rect class="cls-1" x="290" y="130" height="20" width="20" style="filter: url(#displacementFilter)" /><rect class="cls-1" x="310" y="130" height="20" width="20" style="filter: url(#displacementFilter)" /><rect class="cls-1" x="330" y="130" height="20" width="20" style="filter: url(#displacementFilter)" /><rect class="cls-1" x="350" y="130" height="20" width="20" style="filter: url(#displacementFilter)" /><rect class="cls-1" x="370" y="130" height="20" width="20" style="filter: url(#displacementFilter)" /><rect class="cls-1" x="390" y="130" height="20" width="20" style="filter: url(#displacementFilter)" /><rect class="cls-1" x="410" y="130" height="20" width="20" style="filter: url(#displacementFilter)" /><rect class="cls-1" x="430" y="130" height="20" width="20" style="filter: url(#displacementFilter)" /><rect class="cls-1" x="450" y="130" height="20" width="20" style="filter: url(#displacementFilter)" /><rect class="cls-1" x="470" y="130" height="20" width="20" style="filter: url(#displacementFilter)" /><rect class="cls-1" x="490" y="130" height="20" width="20" style="filter: url(#displacementFilter)" /><rect class="cls-1" x="110" y="150" height="20" width="20" style="filter: url(#displacementFilter)" /><rect class="cls-1" x="130" y="150" height="20" width="20" style="filter: url(#displacementFilter)" /><rect class="cls-1" x="150" y="150" height="20" width="20" style="filter: url(#displacementFilter)" /><rect class="cls-1" x="170" y="150" height="20" width="20" style="filter: url(#displacementFilter)" /><rect class="cls-1" x="190" y="150" height="20" width="20" style="filter: url(#displacementFilter)" /><rect class="cls-1" x="210" y="150" height="20" width="20" style="filter: url(#displacementFilter)" /><rect class="cls-1" x="230" y="150" height="20" width="20" style="filter: url(#displacementFilter)" /><rect class="cls-1" x="250" y="150" height="20" width="20" style="filter: url(#displacementFilter)" /><rect class="cls-1" x="270" y="150" height="20" width="20" style="filter: url(#displacementFilter)" /><rect class="cls-1" x="290" y="150" height="20" width="20" style="filter: url(#displacementFilter)" /><rect class="cls-1" x="310" y="150" height="20" width="20" style="filter: url(#displacementFilter)" /><rect class="cls-1" x="330" y="150" height="20" width="20" style="filter: url(#displacementFilter)" /><rect class="cls-1" x="350" y="150" height="20" width="20" style="filter: url(#displacementFilter)" /><rect class="cls-1" x="370" y="150" height="20" width="20" style="filter: url(#displacementFilter)" /><rect class="cls-1" x="390" y="150" height="20" width="20" style="filter: url(#displacementFilter)" /><rect class="cls-1" x="410" y="150" height="20" width="20" style="filter: url(#displacementFilter)" /><rect class="cls-1" x="430" y="150" height="20" width="20" style="filter: url(#displacementFilter)" /><rect class="cls-1" x="450" y="150" height="20" width="20" style="filter: url(#displacementFilter)" /><rect class="cls-1" x="470" y="150" height="20" width="20" style="filter: url(#displacementFilter)" /><rect class="cls-1" x="490" y="150" height="20" width="20" style="filter: url(#displacementFilter)" /><rect class="cls-1" x="110" y="170" height="20" width="20" style="filter: url(#displacementFilter)" /><rect class="cls-1" x="130" y="170" height="20" width="20" style="filter: url(#displacementFilter)" /><rect class="cls-2" x="150" y="170" height="20" width="20" style="filter: url(#displacementFilter)" /><rect class="cls-2" x="170" y="170" height="20" width="20" style="filter: url(#displacementFilter)" /><rect class="cls-2" x="190" y="170" height="20" width="20" style="filter: url(#displacementFilter)" /><rect class="cls-1" x="210" y="170" height="20" width="20" style="filter: url(#displacementFilter)" /><rect class="cls-1" x="230" y="170" height="20" width="20" style="filter: url(#displacementFilter)" /><rect class="cls-1" x="250" y="170" height="20" width="20" style="filter: url(#displacementFilter)" /><rect class="cls-1" x="270" y="170" height="20" width="20" style="filter: url(#displacementFilter)" /><rect class="cls-1" x="290" y="170" height="20" width="20" style="filter: url(#displacementFilter)" /><rect class="cls-1" x="310" y="170" height="20" width="20" style="filter: url(#displacementFilter)" /><rect class="cls-1" x="330" y="170" height="20" width="20" style="filter: url(#displacementFilter)" /><rect class="cls-1" x="350" y="170" height="20" width="20" style="filter: url(#displacementFilter)" /><rect class="cls-1" x="370" y="170" height="20" width="20" style="filter: url(#displacementFilter)" /><rect class="cls-1" x="390" y="170" height="20" width="20" style="filter: url(#displacementFilter)" /><rect class="cls-1" x="410" y="170" height="20" width="20" style="filter: url(#displacementFilter)" /><rect class="cls-1" x="430" y="170" height="20" width="20" style="filter: url(#displacementFilter)" /><rect class="cls-1" x="450" y="170" height="20" width="20" style="filter: url(#displacementFilter)" /><rect class="cls-1" x="470" y="170" height="20" width="20" style="filter: url(#displacementFilter)" /><rect class="cls-1" x="490" y="170" height="20" width="20" style="filter: url(#displacementFilter)" /><rect class="cls-1" x="110" y="190" height="20" width="20" style="filter: url(#displacementFilter)" /><rect class="cls-1" x="130" y="190" height="20" width="20" style="filter: url(#displacementFilter)" /><rect class="cls-2" x="150" y="190" height="20" width="20" style="filter: url(#displacementFilter)" /><rect class="cls-2" x="170" y="190" height="20" width="20" style="filter: url(#displacementFilter)" /><rect class="cls-2" x="190" y="190" height="20" width="20" style="filter: url(#displacementFilter)" /><rect class="cls-1" x="210" y="190" height="20" width="20" style="filter: url(#displacementFilter)" /><rect class="cls-1" x="230" y="190" height="20" width="20" style="filter: url(#displacementFilter)" /><rect class="cls-1" x="250" y="190" height="20" width="20" style="filter: url(#displacementFilter)" /><rect class="cls-1" x="270" y="190" height="20" width="20" style="filter: url(#displacementFilter)" /><rect class="cls-1" x="290" y="190" height="20" width="20" style="filter: url(#displacementFilter)" /><rect class="cls-1" x="310" y="190" height="20" width="20" style="filter: url(#displacementFilter)" /><rect class="cls-1" x="330" y="190" height="20" width="20" style="filter: url(#displacementFilter)" /><rect class="cls-1" x="350" y="190" height="20" width="20" style="filter: url(#displacementFilter)" /><rect class="cls-1" x="370" y="190" height="20" width="20" style="filter: url(#displacementFilter)" /><rect class="cls-1" x="390" y="190" height="20" width="20" style="filter: url(#displacementFilter)" /><rect class="cls-1" x="410" y="190" height="20" width="20" style="filter: url(#displacementFilter)" /><rect class="cls-1" x="430" y="190" height="20" width="20" style="filter: url(#displacementFilter)" /><rect class="cls-1" x="450" y="190" height="20" width="20" style="filter: url(#displacementFilter)" /><rect class="cls-1" x="470" y="190" height="20" width="20" style="filter: url(#displacementFilter)" /><rect class="cls-1" x="490" y="190" height="20" width="20" style="filter: url(#displacementFilter)" /><rect class="cls-1" x="110" y="210" height="20" width="20" style="filter: url(#displacementFilter)" /><rect class="cls-1" x="130" y="210" height="20" width="20" style="filter: url(#displacementFilter)" /><rect class="cls-2" x="150" y="210" height="20" width="20" style="filter: url(#displacementFilter)" /><rect class="cls-2" x="170" y="210" height="20" width="20" style="filter: url(#displacementFilter)" /><rect class="cls-2" x="190" y="210" height="20" width="20" style="filter: url(#displacementFilter)" /><rect class="cls-2" x="210" y="210" height="20" width="20" style="filter: url(#displacementFilter)" /><rect class="cls-2" x="230" y="210" height="20" width="20" style="filter: url(#displacementFilter)" /><rect class="cls-2" x="250" y="210" height="20" width="20" style="filter: url(#displacementFilter)" /><rect class="cls-2" x="270" y="210" height="20" width="20" style="filter: url(#displacementFilter)" /><rect class="cls-2" x="290" y="210" height="20" width="20" style="filter: url(#displacementFilter)" /><rect class="cls-1" x="310" y="210" height="20" width="20" style="filter: url(#displacementFilter)" /><rect class="cls-1" x="330" y="210" height="20" width="20" style="filter: url(#displacementFilter)" /><rect class="cls-1" x="350" y="210" height="20" width="20" style="filter: url(#displacementFilter)" /><rect class="cls-1" x="370" y="210" height="20" width="20" style="filter: url(#displacementFilter)" /><rect class="cls-1" x="390" y="210" height="20" width="20" style="filter: url(#displacementFilter)" /><rect class="cls-1" x="410" y="210" height="20" width="20" style="filter: url(#displacementFilter)" /><rect class="cls-1" x="430" y="210" height="20" width="20" style="filter: url(#displacementFilter)" /><rect class="cls-1" x="450" y="210" height="20" width="20" style="filter: url(#displacementFilter)" /><rect class="cls-1" x="470" y="210" height="20" width="20" style="filter: url(#displacementFilter)" /><rect class="cls-1" x="490" y="210" height="20" width="20" style="filter: url(#displacementFilter)" /><rect class="cls-1" x="110" y="230" height="20" width="20" style="filter: url(#displacementFilter)" /><rect class="cls-1" x="130" y="230" height="20" width="20" style="filter: url(#displacementFilter)" /><rect class="cls-2" x="150" y="230" height="20" width="20" style="filter: url(#displacementFilter)" /><rect class="cls-2" x="170" y="230" height="20" width="20" style="filter: url(#displacementFilter)" /><rect class="cls-2" x="190" y="230" height="20" width="20" style="filter: url(#displacementFilter)" /><rect class="cls-1" x="210" y="230" height="20" width="20" style="filter: url(#displacementFilter)" /><rect class="cls-1" x="230" y="230" height="20" width="20" style="filter: url(#displacementFilter)" /><rect class="cls-1" x="250" y="230" height="20" width="20" style="filter: url(#displacementFilter)" /><rect class="cls-1" x="270" y="230" height="20" width="20" style="filter: url(#displacementFilter)" /><rect class="cls-2" x="290" y="230" height="20" width="20" style="filter: url(#displacementFilter)" /><rect class="cls-2" x="310" y="230" height="20" width="20" style="filter: url(#displacementFilter)" /><rect class="cls-2" x="330" y="230" height="20" width="20" style="filter: url(#displacementFilter)" /><rect class="cls-2" x="350" y="230" height="20" width="20" style="filter: url(#displacementFilter)" /><rect class="cls-2" x="370" y="230" height="20" width="20" style="filter: url(#displacementFilter)" /><rect class="cls-1" x="390" y="230" height="20" width="20" style="filter: url(#displacementFilter)" /><rect class="cls-1" x="410" y="230" height="20" width="20" style="filter: url(#displacementFilter)" /><rect class="cls-1" x="430" y="230" height="20" width="20" style="filter: url(#displacementFilter)" /><rect class="cls-1" x="450" y="230" height="20" width="20" style="filter: url(#displacementFilter)" /><rect class="cls-1" x="470" y="230" height="20" width="20" style="filter: url(#displacementFilter)" /><rect class="cls-1" x="490" y="230" height="20" width="20" style="filter: url(#displacementFilter)" /><rect class="cls-1" x="110" y="250" height="20" width="20" style="filter: url(#displacementFilter)" /><rect class="cls-1" x="130" y="250" height="20" width="20" style="filter: url(#displacementFilter)" /><rect class="cls-2" x="150" y="250" height="20" width="20" style="filter: url(#displacementFilter)" /><rect class="cls-2" x="170" y="250" height="20" width="20" style="filter: url(#displacementFilter)" /><rect class="cls-2" x="190" y="250" height="20" width="20" style="filter: url(#displacementFilter)" /><rect class="cls-2" x="210" y="250" height="20" width="20" style="filter: url(#displacementFilter)" /><rect class="cls-2" x="230" y="250" height="20" width="20" style="filter: url(#displacementFilter)" /><rect class="cls-2" x="250" y="250" height="20" width="20" style="filter: url(#displacementFilter)" /><rect class="cls-2" x="270" y="250" height="20" width="20" style="filter: url(#displacementFilter)" /><rect class="cls-2" x="290" y="250" height="20" width="20" style="filter: url(#displacementFilter)" /><rect class="cls-2" x="310" y="250" height="20" width="20" style="filter: url(#displacementFilter)" /><rect class="cls-2" x="330" y="250" height="20" width="20" style="filter: url(#displacementFilter)" /><rect class="cls-2" x="350" y="250" height="20" width="20" style="filter: url(#displacementFilter)" /><rect class="cls-2" x="370" y="250" height="20" width="20" style="filter: url(#displacementFilter)" /><rect class="cls-1" x="390" y="250" height="20" width="20" style="filter: url(#displacementFilter)" /><rect class="cls-1" x="410" y="250" height="20" width="20" style="filter: url(#displacementFilter)" /><rect class="cls-1" x="430" y="250" height="20" width="20" style="filter: url(#displacementFilter)" /><rect class="cls-1" x="450" y="250" height="20" width="20" style="filter: url(#displacementFilter)" /><rect class="cls-1" x="470" y="250" height="20" width="20" style="filter: url(#displacementFilter)" /><rect class="cls-1" x="490" y="250" height="20" width="20" style="filter: url(#displacementFilter)" /><rect class="cls-1" x="110" y="270" height="20" width="20" style="filter: url(#displacementFilter)" /><rect class="cls-1" x="130" y="270" height="20" width="20" style="filter: url(#displacementFilter)" /><rect class="cls-2" x="150" y="270" height="20" width="20" style="filter: url(#displacementFilter)" /><rect class="cls-2" x="170" y="270" height="20" width="20" style="filter: url(#displacementFilter)" /><rect class="cls-2" x="190" y="270" height="20" width="20" style="filter: url(#displacementFilter)" /><rect class="cls-2" x="210" y="270" height="20" width="20" style="filter: url(#displacementFilter)" /><rect class="cls-2" x="230" y="270" height="20" width="20" style="filter: url(#displacementFilter)" /><rect class="cls-2" x="250" y="270" height="20" width="20" style="filter: url(#displacementFilter)" /><rect class="cls-1" x="270" y="270" height="20" width="20" style="filter: url(#displacementFilter)" /><rect class="cls-2" x="290" y="270" height="20" width="20" style="filter: url(#displacementFilter)" /><rect class="cls-1" x="310" y="270" height="20" width="20" style="filter: url(#displacementFilter)" /><rect class="cls-1" x="330" y="270" height="20" width="20" style="filter: url(#displacementFilter)" /><rect class="cls-2" x="350" y="270" height="20" width="20" style="filter: url(#displacementFilter)" /><rect class="cls-1" x="370" y="270" height="20" width="20" style="filter: url(#displacementFilter)" /><rect class="cls-1" x="390" y="270" height="20" width="20" style="filter: url(#displacementFilter)" /><rect class="cls-1" x="410" y="270" height="20" width="20" style="filter: url(#displacementFilter)" /><rect class="cls-1" x="430" y="270" height="20" width="20" style="filter: url(#displacementFilter)" /><rect class="cls-1" x="450" y="270" height="20" width="20" style="filter: url(#displacementFilter)" /><rect class="cls-1" x="470" y="270" height="20" width="20" style="filter: url(#displacementFilter)" /><rect class="cls-1" x="490" y="270" height="20" width="20" style="filter: url(#displacementFilter)" /><rect class="cls-1" x="110" y="290" height="20" width="20" style="filter: url(#displacementFilter)" /><rect class="cls-2" x="130" y="290" height="20" width="20" style="filter: url(#displacementFilter)" /><rect class="cls-2" x="150" y="290" height="20" width="20" style="filter: url(#displacementFilter)" /><rect class="cls-2" x="170" y="290" height="20" width="20" style="filter: url(#displacementFilter)" /><rect class="cls-2" x="190" y="290" height="20" width="20" style="filter: url(#displacementFilter)" /><rect class="cls-2" x="210" y="290" height="20" width="20" style="filter: url(#displacementFilter)" /><rect class="cls-2" x="230" y="290" height="20" width="20" style="filter: url(#displacementFilter)" /><rect class="cls-2" x="250" y="290" height="20" width="20" style="filter: url(#displacementFilter)" /><rect class="cls-1" x="270" y="290" height="20" width="20" style="filter: url(#displacementFilter)" /><rect class="cls-2" x="290" y="290" height="20" width="20" style="filter: url(#displacementFilter)" /><rect class="cls-1" x="310" y="290" height="20" width="20" style="filter: url(#displacementFilter)" /><rect class="cls-1" x="330" y="290" height="20" width="20" style="filter: url(#displacementFilter)" /><rect class="cls-2" x="350" y="290" height="20" width="20" style="filter: url(#displacementFilter)" /><rect class="cls-1" x="370" y="290" height="20" width="20" style="filter: url(#displacementFilter)" /><rect class="cls-1" x="390" y="290" height="20" width="20" style="filter: url(#displacementFilter)" /><rect class="cls-1" x="410" y="290" height="20" width="20" style="filter: url(#displacementFilter)" /><rect class="cls-1" x="430" y="290" height="20" width="20" style="filter: url(#displacementFilter)" /><rect class="cls-1" x="450" y="290" height="20" width="20" style="filter: url(#displacementFilter)" /><rect class="cls-1" x="470" y="290" height="20" width="20" style="filter: url(#displacementFilter)" /><rect class="cls-1" x="490" y="290" height="20" width="20" style="filter: url(#displacementFilter)" /><rect class="cls-1" x="110" y="310" height="20" width="20" style="filter: url(#displacementFilter)" /><rect class="cls-2" x="130" y="310" height="20" width="20" style="filter: url(#displacementFilter)" /><rect class="cls-2" x="150" y="310" height="20" width="20" style="filter: url(#displacementFilter)" /><rect class="cls-2" x="170" y="310" height="20" width="20" style="filter: url(#displacementFilter)" /><rect class="cls-2" x="190" y="310" height="20" width="20" style="filter: url(#displacementFilter)" /><rect class="cls-2" x="210" y="310" height="20" width="20" style="filter: url(#displacementFilter)" /><rect class="cls-2" x="230" y="310" height="20" width="20" style="filter: url(#displacementFilter)" /><rect class="cls-2" x="250" y="310" height="20" width="20" style="filter: url(#displacementFilter)" /><rect class="cls-1" x="270" y="310" height="20" width="20" style="filter: url(#displacementFilter)" /><rect class="cls-2" x="290" y="310" height="20" width="20" style="filter: url(#displacementFilter)" /><rect class="cls-1" x="310" y="310" height="20" width="20" style="filter: url(#displacementFilter)" /><rect class="cls-1" x="330" y="310" height="20" width="20" style="filter: url(#displacementFilter)" /><rect class="cls-2" x="350" y="310" height="20" width="20" style="filter: url(#displacementFilter)" /><rect class="cls-1" x="370" y="310" height="20" width="20" style="filter: url(#displacementFilter)" /><rect class="cls-1" x="390" y="310" height="20" width="20" style="filter: url(#displacementFilter)" /><rect class="cls-1" x="410" y="310" height="20" width="20" style="filter: url(#displacementFilter)" /><rect class="cls-1" x="430" y="310" height="20" width="20" style="filter: url(#displacementFilter)" /><rect class="cls-1" x="450" y="310" height="20" width="20" style="filter: url(#displacementFilter)" /><rect class="cls-1" x="470" y="310" height="20" width="20" style="filter: url(#displacementFilter)" /><rect class="cls-1" x="490" y="310" height="20" width="20" style="filter: url(#displacementFilter)" /><rect class="cls-1" x="110" y="330" height="20" width="20" style="filter: url(#displacementFilter)" /><rect class="cls-2" x="130" y="330" height="20" width="20" style="filter: url(#displacementFilter)" /><rect class="cls-2" x="150" y="330" height="20" width="20" style="filter: url(#displacementFilter)" /><rect class="cls-2" x="170" y="330" height="20" width="20" style="filter: url(#displacementFilter)" /><rect class="cls-2" x="190" y="330" height="20" width="20" style="filter: url(#displacementFilter)" /><rect class="cls-2" x="210" y="330" height="20" width="20" style="filter: url(#displacementFilter)" /><rect class="cls-2" x="230" y="330" height="20" width="20" style="filter: url(#displacementFilter)" /><rect class="cls-2" x="250" y="330" height="20" width="20" style="filter: url(#displacementFilter)" /><rect class="cls-2" x="270" y="330" height="20" width="20" style="filter: url(#displacementFilter)" /><rect class="cls-2" x="290" y="330" height="20" width="20" style="filter: url(#displacementFilter)" /><rect class="cls-2" x="310" y="330" height="20" width="20" style="filter: url(#displacementFilter)" /><rect class="cls-2" x="330" y="330" height="20" width="20" style="filter: url(#displacementFilter)" /><rect class="cls-1" x="350" y="330" height="20" width="20" style="filter: url(#displacementFilter)" /><rect class="cls-1" x="370" y="330" height="20" width="20" style="filter: url(#displacementFilter)" /><rect class="cls-1" x="390" y="330" height="20" width="20" style="filter: url(#displacementFilter)" /><rect class="cls-1" x="410" y="330" height="20" width="20" style="filter: url(#displacementFilter)" /><rect class="cls-1" x="430" y="330" height="20" width="20" style="filter: url(#displacementFilter)" /><rect class="cls-1" x="450" y="330" height="20" width="20" style="filter: url(#displacementFilter)" /><rect class="cls-1" x="470" y="330" height="20" width="20" style="filter: url(#displacementFilter)" /><rect class="cls-1" x="490" y="330" height="20" width="20" style="filter: url(#displacementFilter)" /><rect class="cls-1" x="110" y="350" height="20" width="20" style="filter: url(#displacementFilter)" /><rect class="cls-2" x="130" y="350" height="20" width="20" style="filter: url(#displacementFilter)" /><rect class="cls-2" x="150" y="350" height="20" width="20" style="filter: url(#displacementFilter)" /><rect class="cls-2" x="170" y="350" height="20" width="20" style="filter: url(#displacementFilter)" /><rect class="cls-2" x="190" y="350" height="20" width="20" style="filter: url(#displacementFilter)" /><rect class="cls-2" x="210" y="350" height="20" width="20" style="filter: url(#displacementFilter)" /><rect class="cls-2" x="230" y="350" height="20" width="20" style="filter: url(#displacementFilter)" /><rect class="cls-2" x="250" y="350" height="20" width="20" style="filter: url(#displacementFilter)" /><rect class="cls-2" x="270" y="350" height="20" width="20" style="filter: url(#displacementFilter)" /><rect class="cls-2" x="290" y="350" height="20" width="20" style="filter: url(#displacementFilter)" /><rect class="cls-1" x="310" y="350" height="20" width="20" style="filter: url(#displacementFilter)" /><rect class="cls-1" x="330" y="350" height="20" width="20" style="filter: url(#displacementFilter)" /><rect class="cls-1" x="350" y="350" height="20" width="20" style="filter: url(#displacementFilter)" /><rect class="cls-2" x="370" y="350" height="20" width="20" style="filter: url(#displacementFilter)" /><rect class="cls-2" x="390" y="350" height="20" width="20" style="filter: url(#displacementFilter)" /><rect class="cls-2" x="410" y="350" height="20" width="20" style="filter: url(#displacementFilter)" /><rect class="cls-2" x="430" y="350" height="20" width="20" style="filter: url(#displacementFilter)" /><rect class="cls-1" x="450" y="350" height="20" width="20" style="filter: url(#displacementFilter)" /><rect class="cls-1" x="470" y="350" height="20" width="20" style="filter: url(#displacementFilter)" /><rect class="cls-1" x="490" y="350" height="20" width="20" style="filter: url(#displacementFilter)" /><rect class="cls-1" x="110" y="370" height="20" width="20" style="filter: url(#displacementFilter)" /><rect class="cls-2" x="130" y="370" height="20" width="20" style="filter: url(#displacementFilter)" /><rect class="cls-2" x="150" y="370" height="20" width="20" style="filter: url(#displacementFilter)" /><rect class="cls-2" x="170" y="370" height="20" width="20" style="filter: url(#displacementFilter)" /><rect class="cls-2" x="190" y="370" height="20" width="20" style="filter: url(#displacementFilter)" /><rect class="cls-2" x="210" y="370" height="20" width="20" style="filter: url(#displacementFilter)" /><rect class="cls-2" x="230" y="370" height="20" width="20" style="filter: url(#displacementFilter)" /><rect class="cls-2" x="250" y="370" height="20" width="20" style="filter: url(#displacementFilter)" /><rect class="cls-2" x="270" y="370" height="20" width="20" style="filter: url(#displacementFilter)" /><rect class="cls-2" x="290" y="370" height="20" width="20" style="filter: url(#displacementFilter)" /><rect class="cls-2" x="310" y="370" height="20" width="20" style="filter: url(#displacementFilter)" /><rect class="cls-2" x="330" y="370" height="20" width="20" style="filter: url(#displacementFilter)" /><rect class="cls-1" x="350" y="370" height="20" width="20" style="filter: url(#displacementFilter)" /><rect class="cls-2" x="370" y="370" height="20" width="20" style="filter: url(#displacementFilter)" /><rect class="cls-2" x="390" y="370" height="20" width="20" style="filter: url(#displacementFilter)" /><rect class="cls-2" x="410" y="370" height="20" width="20" style="filter: url(#displacementFilter)" /><rect class="cls-2" x="430" y="370" height="20" width="20" style="filter: url(#displacementFilter)" /><rect class="cls-1" x="450" y="370" height="20" width="20" style="filter: url(#displacementFilter)" /><rect class="cls-1" x="470" y="370" height="20" width="20" style="filter: url(#displacementFilter)" /><rect class="cls-1" x="490" y="370" height="20" width="20" style="filter: url(#displacementFilter)" /><rect class="cls-1" x="110" y="390" height="20" width="20" style="filter: url(#displacementFilter)" /><rect class="cls-2" x="130" y="390" height="20" width="20" style="filter: url(#displacementFilter)" /><rect class="cls-2" x="150" y="390" height="20" width="20" style="filter: url(#displacementFilter)" /><rect class="cls-2" x="170" y="390" height="20" width="20" style="filter: url(#displacementFilter)" /><rect class="cls-2" x="190" y="390" height="20" width="20" style="filter: url(#displacementFilter)" /><rect class="cls-2" x="210" y="390" height="20" width="20" style="filter: url(#displacementFilter)" /><rect class="cls-2" x="230" y="390" height="20" width="20" style="filter: url(#displacementFilter)" /><rect class="cls-2" x="250" y="390" height="20" width="20" style="filter: url(#displacementFilter)" /><rect class="cls-2" x="270" y="390" height="20" width="20" style="filter: url(#displacementFilter)" /><rect class="cls-2" x="290" y="390" height="20" width="20" style="filter: url(#displacementFilter)" /><rect class="cls-2" x="310" y="390" height="20" width="20" style="filter: url(#displacementFilter)" /><rect class="cls-2" x="330" y="390" height="20" width="20" style="filter: url(#displacementFilter)" /><rect class="cls-2" x="350" y="390" height="20" width="20" style="filter: url(#displacementFilter)" /><rect class="cls-2" x="370" y="390" height="20" width="20" style="filter: url(#displacementFilter)" /><rect class="cls-2" x="390" y="390" height="20" width="20" style="filter: url(#displacementFilter)" /><rect class="cls-2" x="410" y="390" height="20" width="20" style="filter: url(#displacementFilter)" /><rect class="cls-2" x="430" y="390" height="20" width="20" style="filter: url(#displacementFilter)" /><rect class="cls-1" x="450" y="390" height="20" width="20" style="filter: url(#displacementFilter)" /><rect class="cls-1" x="470" y="390" height="20" width="20" style="filter: url(#displacementFilter)" /><rect class="cls-1" x="490" y="390" height="20" width="20" style="filter: url(#displacementFilter)" /><rect class="cls-1" x="110" y="410" height="20" width="20" style="filter: url(#displacementFilter)" /><rect class="cls-2" x="130" y="410" height="20" width="20" style="filter: url(#displacementFilter)" /><rect class="cls-2" x="150" y="410" height="20" width="20" style="filter: url(#displacementFilter)" /><rect class="cls-2" x="170" y="410" height="20" width="20" style="filter: url(#displacementFilter)" /><rect class="cls-2" x="190" y="410" height="20" width="20" style="filter: url(#displacementFilter)" /><rect class="cls-2" x="210" y="410" height="20" width="20" style="filter: url(#displacementFilter)" /><rect class="cls-2" x="230" y="410" height="20" width="20" style="filter: url(#displacementFilter)" /><rect class="cls-2" x="250" y="410" height="20" width="20" style="filter: url(#displacementFilter)" /><rect class="cls-2" x="270" y="410" height="20" width="20" style="filter: url(#displacementFilter)" /><rect class="cls-2" x="290" y="410" height="20" width="20" style="filter: url(#displacementFilter)" /><rect class="cls-2" x="310" y="410" height="20" width="20" style="filter: url(#displacementFilter)" /><rect class="cls-2" x="330" y="410" height="20" width="20" style="filter: url(#displacementFilter)" /><rect class="cls-1" x="350" y="410" height="20" width="20" style="filter: url(#displacementFilter)" /><rect class="cls-2" x="370" y="410" height="20" width="20" style="filter: url(#displacementFilter)" /><rect class="cls-2" x="390" y="410" height="20" width="20" style="filter: url(#displacementFilter)" /><rect class="cls-2" x="410" y="410" height="20" width="20" style="filter: url(#displacementFilter)" /><rect class="cls-2" x="430" y="410" height="20" width="20" style="filter: url(#displacementFilter)" /><rect class="cls-1" x="450" y="410" height="20" width="20" style="filter: url(#displacementFilter)" /><rect class="cls-1" x="470" y="410" height="20" width="20" style="filter: url(#displacementFilter)" /><rect class="cls-1" x="490" y="410" height="20" width="20" style="filter: url(#displacementFilter)" /><rect class="cls-1" x="110" y="430" height="20" width="20" style="filter: url(#displacementFilter)" /><rect class="cls-2" x="130" y="430" height="20" width="20" style="filter: url(#displacementFilter)" /><rect class="cls-2" x="150" y="430" height="20" width="20" style="filter: url(#displacementFilter)" /><rect class="cls-2" x="170" y="430" height="20" width="20" style="filter: url(#displacementFilter)" /><rect class="cls-2" x="190" y="430" height="20" width="20" style="filter: url(#displacementFilter)" /><rect class="cls-2" x="210" y="430" height="20" width="20" style="filter: url(#displacementFilter)" /><rect class="cls-2" x="230" y="430" height="20" width="20" style="filter: url(#displacementFilter)" /><rect class="cls-2" x="250" y="430" height="20" width="20" style="filter: url(#displacementFilter)" /><rect class="cls-2" x="270" y="430" height="20" width="20" style="filter: url(#displacementFilter)" /><rect class="cls-2" x="290" y="430" height="20" width="20" style="filter: url(#displacementFilter)" /><rect class="cls-2" x="310" y="430" height="20" width="20" style="filter: url(#displacementFilter)" /><rect class="cls-2" x="330" y="430" height="20" width="20" style="filter: url(#displacementFilter)" /><rect class="cls-2" x="350" y="430" height="20" width="20" style="filter: url(#displacementFilter)" /><rect class="cls-2" x="370" y="430" height="20" width="20" style="filter: url(#displacementFilter)" /><rect class="cls-2" x="390" y="430" height="20" width="20" style="filter: url(#displacementFilter)" /><rect class="cls-2" x="410" y="430" height="20" width="20" style="filter: url(#displacementFilter)" /><rect class="cls-2" x="430" y="430" height="20" width="20" style="filter: url(#displacementFilter)" /><rect class="cls-1" x="450" y="430" height="20" width="20" style="filter: url(#displacementFilter)" /><rect class="cls-1" x="470" y="430" height="20" width="20" style="filter: url(#displacementFilter)" /><rect class="cls-1" x="490" y="430" height="20" width="20" style="filter: url(#displacementFilter)" /><rect class="cls-1" x="110" y="450" height="20" width="20" style="filter: url(#displacementFilter)" /><rect class="cls-1" x="130" y="450" height="20" width="20" style="filter: url(#displacementFilter)" /><rect class="cls-1" x="150" y="450" height="20" width="20" style="filter: url(#displacementFilter)" /><rect class="cls-1" x="170" y="450" height="20" width="20" style="filter: url(#displacementFilter)" /><rect class="cls-1" x="190" y="450" height="20" width="20" style="filter: url(#displacementFilter)" /><rect class="cls-1" x="210" y="450" height="20" width="20" style="filter: url(#displacementFilter)" /><rect class="cls-1" x="230" y="450" height="20" width="20" style="filter: url(#displacementFilter)" /><rect class="cls-1" x="250" y="450" height="20" width="20" style="filter: url(#displacementFilter)" /><rect class="cls-1" x="270" y="450" height="20" width="20" style="filter: url(#displacementFilter)" /><rect class="cls-1" x="290" y="450" height="20" width="20" style="filter: url(#displacementFilter)" /><rect class="cls-1" x="310" y="450" height="20" width="20" style="filter: url(#displacementFilter)" /><rect class="cls-1" x="330" y="450" height="20" width="20" style="filter: url(#displacementFilter)" /><rect class="cls-1" x="350" y="450" height="20" width="20" style="filter: url(#displacementFilter)" /><rect class="cls-1" x="370" y="450" height="20" width="20" style="filter: url(#displacementFilter)" /><rect class="cls-1" x="390" y="450" height="20" width="20" style="filter: url(#displacementFilter)" /><rect class="cls-1" x="410" y="450" height="20" width="20" style="filter: url(#displacementFilter)" /><rect class="cls-1" x="430" y="450" height="20" width="20" style="filter: url(#displacementFilter)" /><rect class="cls-1" x="450" y="450" height="20" width="20" style="filter: url(#displacementFilter)" /><rect class="cls-1" x="470" y="450" height="20" width="20" style="filter: url(#displacementFilter)" /><rect class="cls-1" x="490" y="450" height="20" width="20" style="filter: url(#displacementFilter)" /><rect class="cls-1" x="110" y="470" height="20" width="20" style="filter: url(#displacementFilter)" /><rect class="cls-1" x="130" y="470" height="20" width="20" style="filter: url(#displacementFilter)" /><rect class="cls-1" x="150" y="470" height="20" width="20" style="filter: url(#displacementFilter)" /><rect class="cls-1" x="170" y="470" height="20" width="20" style="filter: url(#displacementFilter)" /><rect class="cls-1" x="190" y="470" height="20" width="20" style="filter: url(#displacementFilter)" /><rect class="cls-1" x="210" y="470" height="20" width="20" style="filter: url(#displacementFilter)" /><rect class="cls-1" x="230" y="470" height="20" width="20" style="filter: url(#displacementFilter)" /><rect class="cls-1" x="250" y="470" height="20" width="20" style="filter: url(#displacementFilter)" /><rect class="cls-1" x="270" y="470" height="20" width="20" style="filter: url(#displacementFilter)" /><rect class="cls-1" x="290" y="470" height="20" width="20" style="filter: url(#displacementFilter)" /><rect class="cls-1" x="310" y="470" height="20" width="20" style="filter: url(#displacementFilter)" /><rect class="cls-1" x="330" y="470" height="20" width="20" style="filter: url(#displacementFilter)" /><rect class="cls-1" x="350" y="470" height="20" width="20" style="filter: url(#displacementFilter)" /><rect class="cls-1" x="370" y="470" height="20" width="20" style="filter: url(#displacementFilter)" /><rect class="cls-1" x="390" y="470" height="20" width="20" style="filter: url(#displacementFilter)" /><rect class="cls-1" x="410" y="470" height="20" width="20" style="filter: url(#displacementFilter)" /><rect class="cls-1" x="430" y="470" height="20" width="20" style="filter: url(#displacementFilter)" /><rect class="cls-1" x="450" y="470" height="20" width="20" style="filter: url(#displacementFilter)" /><rect class="cls-1" x="470" y="470" height="20" width="20" style="filter: url(#displacementFilter)" /><rect class="cls-1" x="490" y="470" height="20" width="20" style="filter: url(#displacementFilter)" /></g> <rect class="contour"  x="113.5" y="86.5" width="382" height="279" style="filter: url(#displacementFilter)"/><polygon class="shadow" points="112.5 365.5 112.5 87.92 108 97 108 370 490 370 494.67 365.5 112.5 365.5" style="filter: url(#displacementFilter)"/></svg>